<svg width="24" height="22" viewBox="0 0 24 22" fill="none" xmlns="http://www.w3.org/2000/svg">
<path d="M1.94995 14.6667V12.5125C1.94995 11.9778 2.09995 11.4927 2.39995 11.0573C2.69995 10.6219 3.11662 10.2972 3.64995 10.0833C4.86662 9.59444 5.96245 9.24306 6.93745 9.02917C7.91245 8.81528 8.91662 8.70833 9.94995 8.70833C10.8 8.70833 11.6208 8.7809 12.4125 8.92604C13.2041 9.07118 14.05 9.29653 14.95 9.60208C14.7666 9.77014 14.5916 9.94201 14.425 10.1177C14.2583 10.2934 14.1083 10.4882 13.975 10.7021C13.225 10.4576 12.5458 10.2934 11.9375 10.2094C11.3291 10.1253 10.6666 10.0833 9.94995 10.0833C8.99995 10.0833 8.11245 10.1674 7.28745 10.3354C6.46245 10.5035 5.44995 10.8319 4.24995 11.3208C4.01662 11.4125 3.82495 11.5729 3.67495 11.8021C3.52495 12.0312 3.44995 12.2681 3.44995 12.5125V13.2917H12.5C12.75 13.5056 12.9041 13.7309 12.9625 13.9677C13.0208 14.2045 13.0666 14.4375 13.1 14.6667H1.94995ZM3.44995 13.2917C3.44995 13.2917 3.52495 13.2917 3.67495 13.2917C3.82495 13.2917 4.01662 13.2917 4.24995 13.2917C5.44995 13.2917 6.46245 13.2917 7.28745 13.2917C8.11245 13.2917 8.99995 13.2917 9.94995 13.2917C10.6666 13.2917 11.2708 13.2917 11.7625 13.2917C12.2541 13.2917 12.5 13.2917 12.5 13.2917H3.44995ZM9.94995 7.31042C8.84995 7.31042 7.94995 6.98958 7.24995 6.34792C6.54995 5.70625 6.19995 4.88125 6.19995 3.87292C6.19995 2.86458 6.54995 2.03958 7.24995 1.39792C7.94995 0.75625 8.84995 0.435417 9.94995 0.435417C11.05 0.435417 11.95 0.75625 12.65 1.39792C13.35 2.03958 13.7 2.86458 13.7 3.87292C13.7 4.88125 13.35 5.70625 12.65 6.34792C11.95 6.98958 11.05 7.31042 9.94995 7.31042ZM9.94995 5.93542C10.6 5.93542 11.1375 5.74063 11.5625 5.35104C11.9875 4.96146 12.2 4.46875 12.2 3.87292C12.2 3.27708 11.9875 2.78438 11.5625 2.39479C11.1375 2.00521 10.6 1.81042 9.94995 1.81042C9.29995 1.81042 8.76245 2.00521 8.33745 2.39479C7.91245 2.78438 7.69995 3.27708 7.69995 3.87292C7.69995 4.46875 7.91245 4.96146 8.33745 5.35104C8.76245 5.74063 9.29995 5.93542 9.94995 5.93542ZM18.95 3.87292C18.95 4.88125 18.6 5.70625 17.9 6.34792C17.2 6.98958 16.3 7.31042 15.2 7.31042C15.0166 7.31042 14.8125 7.29896 14.5875 7.27604C14.3625 7.25313 14.1583 7.21111 13.975 7.15C14.375 6.76806 14.6791 6.29826 14.8875 5.74063C15.0958 5.18299 15.2 4.56042 15.2 3.87292C15.2 3.18542 15.0958 2.57813 14.8875 2.05104C14.6791 1.52396 14.375 1.03889 13.975 0.595834C14.1583 0.55 14.3625 0.511806 14.5875 0.48125C14.8125 0.450695 15.0166 0.435417 15.2 0.435417C16.3 0.435417 17.2 0.75625 17.9 1.39792C18.6 2.03958 18.95 2.86458 18.95 3.87292ZM19.25 18.1042C17.95 18.1042 16.8333 17.6764 15.9 16.8208C14.9666 15.9653 14.5 14.9417 14.5 13.75C14.5 12.5431 14.9666 11.5156 15.9 10.6677C16.8333 9.81979 17.95 9.39583 19.25 9.39583C20.5666 9.39583 21.6875 9.81979 22.6124 10.6677C23.5374 11.5156 24 12.5431 24 13.75C24 14.9417 23.5374 15.9653 22.6124 16.8208C21.6875 17.6764 20.5666 18.1042 19.25 18.1042ZM18.2999 15.6292L21.65 12.5583L21.125 12.0771L18.2999 14.6667L16.9 13.3604L16.375 13.8417L18.2999 15.6292Z" fill="#522373"/>
</svg>
