<svg width="24" height="25" viewBox="0 0 24 25" fill="none" xmlns="http://www.w3.org/2000/svg">
<path d="M11.5 22.5C9.98333 22.5 8.6875 21.9792 7.6125 20.9375C6.5375 19.8958 6 18.6167 6 17.1V6.35C6 5.28333 6.37917 4.375 7.1375 3.625C7.89583 2.875 8.80833 2.5 9.875 2.5C10.9583 2.5 11.875 2.875 12.625 3.625C13.375 4.375 13.75 5.29167 13.75 6.375V16.225C13.75 16.8583 13.5333 17.3958 13.1 17.8375C12.6667 18.2792 12.1333 18.5 11.5 18.5C10.8667 18.5 10.3333 18.2625 9.9 17.7875C9.46667 17.3125 9.25 16.75 9.25 16.1V6.3H10.25V16.175C10.25 16.5417 10.3708 16.8542 10.6125 17.1125C10.8542 17.3708 11.15 17.5 11.5 17.5C11.85 17.5 12.1458 17.375 12.3875 17.125C12.6292 16.875 12.75 16.575 12.75 16.225V6.35C12.75 5.55 12.4708 4.875 11.9125 4.325C11.3542 3.775 10.675 3.5 9.875 3.5C9.075 3.5 8.39583 3.775 7.8375 4.325C7.27917 4.875 7 5.55 7 6.35V17.15C7 18.3667 7.44167 19.3958 8.325 20.2375C9.20833 21.0792 10.2667 21.5 11.5 21.5C12.75 21.5 13.8125 21.075 14.6875 20.225C15.5625 19.375 16 18.3333 16 17.1V6.3H17V17.075C17 18.5917 16.4625 19.875 15.3875 20.925C14.3125 21.975 13.0167 22.5 11.5 22.5Z" fill="white"/>
</svg>
