<svg width="74" height="12" viewBox="0 0 74 12" fill="none" xmlns="http://www.w3.org/2000/svg">
<path d="M12.0909 6C12.0909 8.6813 9.69181 11 6.54545 11C3.3991 11 1 8.6813 1 6C1 3.3187 3.3991 1 6.54545 1C9.69181 1 12.0909 3.3187 12.0909 6Z" stroke="#59D9BA" stroke-width="2"/>
<path d="M52.0909 6C52.0909 8.6813 49.6918 11 46.5455 11C43.3991 11 41 8.6813 41 6C41 3.3187 43.3991 1 46.5455 1C49.6918 1 52.0909 3.3187 52.0909 6Z" stroke="#59D9BA" stroke-width="2"/>
<path d="M72.0909 6C72.0909 8.6813 69.6918 11 66.5455 11C63.3991 11 61 8.6813 61 6C61 3.3187 63.3991 1 66.5455 1C69.6918 1 72.0909 3.3187 72.0909 6Z" stroke="#59D9BA" stroke-width="2"/>
<ellipse cx="26.5455" cy="6" rx="6.54545" ry="6" fill="#522473"/>
</svg>
