<svg width="50" height="50" viewBox="0 0 50 50" fill="none" xmlns="http://www.w3.org/2000/svg">
<path d="M48 25.4902C48 37.8849 37.7401 48 25 48C12.2599 48 2 37.8849 2 25.4902C2 13.0955 12.2599 2.98041 25 2.98041C37.7401 2.98041 48 13.0955 48 25.4902Z" stroke="#522373" stroke-width="4"/>
<path d="M48.3008 23.0832L43.4082 18.5834C38.4766 14.0548 31.9434 11.5656 25 11.5656C18.0566 11.5656 11.5234 14.0548 6.60157 18.5834L1.70899 23.0832C0.527351 24.3183 1.28907 25.6204 1.70899 25.9363L6.60157 30.4362C11.5234 34.9648 18.0566 37.454 25 37.454C31.9434 37.454 38.4766 34.9648 43.3984 30.4362L48.291 25.9363C48.75 25.5629 49.4824 24.2513 48.3008 23.0832ZM5.98634 24.5098L9.33594 21.4365C12.4609 18.5642 16.3672 16.659 20.6152 15.8739C17.3828 17.4632 15.166 20.7376 15.166 24.5098C15.166 28.282 17.3926 31.5659 20.6152 33.1457C16.3672 32.3702 12.4609 30.4553 9.33594 27.5831L5.98634 24.5098ZM40.6738 27.5831C37.5488 30.4553 33.6426 32.3702 29.3945 33.1457C32.627 31.5564 34.8438 28.282 34.8438 24.5098C34.8438 20.7376 32.6172 17.4632 29.3945 15.8739C33.6426 16.6494 37.5488 18.5642 40.6738 21.4365L44.0234 24.5098L40.6738 27.5831Z" fill="#522373"/>
</svg>
