<svg width="18" height="26" viewBox="0 0 18 26" fill="none" xmlns="http://www.w3.org/2000/svg">
<path d="M9 21.0625C6.14583 18.9167 4.02604 16.8646 2.64062 14.9062C1.25521 12.9479 0.5625 11.0208 0.5625 9.125C0.5625 7.70833 0.817709 6.46354 1.32813 5.39062C1.83854 4.31771 2.5 3.41667 3.3125 2.6875C4.125 1.95833 5.03125 1.41146 6.03125 1.04688C7.03125 0.682292 8.02083 0.5 9 0.5C9.97917 0.5 10.9688 0.682292 11.9688 1.04688C12.9688 1.41146 13.875 1.95833 14.6875 2.6875C15.5 3.41667 16.1615 4.31771 16.6719 5.39062C17.1823 6.46354 17.4375 7.70833 17.4375 9.125C17.4375 11.0208 16.7448 12.9479 15.3594 14.9062C13.974 16.8646 11.8542 18.9167 9 21.0625ZM0.5625 25.5V23.625H17.4375V25.5H0.5625Z" fill="#FF5151"/>
</svg>
