<svg width="150" height="90" viewBox="0 0 150 90" fill="none" xmlns="http://www.w3.org/2000/svg">
<path d="M67.2394 77.1698C66.6694 77.754 65.9885 78.0299 65.1968 77.9974C64.4051 77.965 63.7243 77.6566 63.1542 77.0724C62.6475 76.5531 62.3625 75.9039 62.2992 75.125C62.2358 74.346 62.4258 73.6644 62.8692 73.0802L81.3002 46.7898L50.5185 43.7712C48.8718 43.6414 47.7792 42.765 47.2408 41.1422C46.7025 39.5193 47.0667 38.1561 48.3334 37.0526L87.7606 0.830224C88.3306 0.245992 89.0115 -0.0298949 89.8032 0.00256242C90.5949 0.0350197 91.2758 0.343364 91.8458 0.927595C92.3525 1.44691 92.6375 2.09606 92.7008 2.87503C92.7642 3.65401 92.5742 4.33561 92.1308 4.91984L73.6998 31.2103L104.481 34.2288C106.128 34.3586 107.221 35.235 107.759 36.8578C108.298 38.4807 107.933 39.8439 106.667 40.9474L67.2394 77.1698Z" fill="#522373"/>
</svg>
