<svg width="279" height="96" viewBox="0 0 279 96" fill="none" xmlns="http://www.w3.org/2000/svg">
<path d="M148.503 50.403L148.412 28.4217L137.806 46.5451H129.12L118.879 27.9731V50.403H100.318V1.32635H122.171L134.057 24.2049L147.497 1.32635H166.881L167.064 50.403H148.503Z" fill="#9DE1D9"/>
<path d="M194.096 51.7295C188.557 51.7295 183.566 50.6347 179.122 48.4451C174.74 46.1946 171.301 43.1231 168.805 39.2305C166.309 35.277 165.062 30.8066 165.062 25.8191C165.062 20.8317 166.309 16.3916 168.805 12.499C171.301 8.54555 174.74 5.47402 179.122 3.28441C183.566 1.0948 188.557 0 194.096 0C199.696 0 204.687 1.0948 209.07 3.28441C213.513 5.47402 216.952 8.54555 219.387 12.499C221.883 16.3916 223.13 20.8317 223.13 25.8191C223.13 30.8066 221.883 35.277 219.387 39.2305C216.952 43.1231 213.513 46.1946 209.07 48.4451C204.687 50.6347 199.696 51.7295 194.096 51.7295ZM194.096 35.6724C196.47 35.6724 198.418 34.8208 199.939 33.1178C201.461 31.354 202.222 28.9211 202.222 25.8191C202.222 22.7172 201.461 20.3147 199.939 18.6117C198.418 16.9086 196.47 16.0571 194.096 16.0571C191.722 16.0571 189.774 16.9086 188.253 18.6117C186.731 20.3147 185.97 22.7172 185.97 25.8191C185.97 28.9211 186.731 31.354 188.253 33.1178C189.774 34.8208 191.722 35.6724 194.096 35.6724Z" fill="#9DE1D9"/>
<path d="M247.592 51.7295C242 51.7295 236.979 50.6347 232.529 48.4451C228.139 46.2555 224.682 43.1839 222.156 39.2305C219.691 35.277 218.458 30.8066 218.458 25.8191C218.458 20.8317 219.691 16.3916 222.156 12.499C224.682 8.54555 228.139 5.47402 232.529 3.28441C236.979 1.0948 242 0 247.592 0C253.605 0 258.746 1.30768 263.015 3.92305C267.285 6.53841 270.231 10.1573 271.855 14.7799L256.07 22.6259C254.146 18.2467 251.29 16.0571 247.502 16.0571C245.096 16.0571 243.082 16.9086 241.458 18.6117C239.895 20.3147 239.113 22.7172 239.113 25.8191C239.113 28.9819 239.895 31.4148 241.458 33.1178C243.082 34.8208 245.096 35.6724 247.502 35.6724C251.29 35.6724 254.146 33.4828 256.07 29.1035L271.855 36.9496C270.231 41.5721 267.285 45.1911 263.015 47.8064C258.746 50.4218 253.605 51.7295 247.592 51.7295Z" fill="#9DE1D9"/>
<path d="M28.471 63.8381C32.1447 65.2119 33.9815 67.7784 33.9815 71.537C33.9815 74.568 32.7773 76.9524 30.3691 78.6903C27.9609 80.3877 24.43 81.2364 19.7766 81.2364H0V48.0765H18.797C23.2869 48.0765 26.7769 48.8441 29.267 50.3801C31.757 51.8755 33.0019 53.9973 33.0019 56.7453C33.0019 58.281 32.6142 59.6552 31.8386 60.8676C31.0632 62.08 29.9405 63.0701 28.471 63.8381ZM12.1231 61.1707H17.5724C19.5723 61.1707 20.5726 60.3826 20.5726 58.8065C20.5726 58.0388 20.3277 57.4728 19.8379 57.1091C19.3886 56.7453 18.6336 56.5635 17.5724 56.5635H12.1231V61.1707ZM18.5521 72.7494C20.552 72.7494 21.5523 71.9208 21.5523 70.2639C21.5523 68.6878 20.5523 67.8997 18.5521 67.8997H12.1231V72.7494H18.5521Z" fill="#522473"/>
<path d="M49.9729 81.2364C46.2864 81.2364 42.9646 80.5206 40.0076 79.0889C37.091 77.6173 34.8021 75.6093 33.1413 73.064C31.4802 70.4791 30.65 67.5558 30.65 64.295C30.65 61.0339 31.4802 58.131 33.1413 55.5857C34.8021 53.0009 37.091 50.9924 40.0076 49.5608C42.9646 48.1291 46.2864 47.4133 49.9729 47.4133C53.6996 47.4133 57.0214 48.1291 59.9381 49.5608C62.895 50.9924 65.1839 53.0005 66.8044 55.5857C68.4652 58.1307 69.2957 61.0339 69.2957 64.295C69.2957 67.5561 68.4652 70.4791 66.8044 73.064C65.1839 75.6089 62.895 77.6173 59.9381 79.0889C57.0214 80.5206 53.6996 81.2364 49.9729 81.2364ZM49.9729 70.7375C51.5527 70.7375 52.8489 70.1809 53.8617 69.0672C54.8742 67.914 55.3808 66.3232 55.3808 64.295C55.3808 62.2668 54.8742 60.6961 53.8617 59.5824C52.8489 58.4688 51.5527 57.9122 49.9729 57.9122C48.393 57.9122 47.0965 58.4688 46.084 59.5824C45.0712 60.6961 44.5649 62.2668 44.5649 64.295C44.5649 66.3232 45.0712 67.914 46.084 69.0672C47.0965 70.1809 48.393 70.7375 49.9729 70.7375Z" fill="#522473"/>
<path d="M102.611 48.0765V80.9968H89.0297V58.6688H82.8401L82.6598 62.9418C82.4994 67.1949 82.0588 70.6855 81.3377 73.4137C80.6166 76.1419 79.4147 78.2484 77.7321 79.733C76.0896 81.1774 73.826 81.8996 70.9415 81.8996C69.1386 81.8996 67.0353 81.5987 64.6316 80.9968L65.1724 69.9833C65.8136 70.0634 66.2741 70.1036 66.5546 70.1036C68.1971 70.1036 69.2787 69.5218 69.7997 68.3583C70.3206 67.1546 70.641 65.1686 70.7612 62.4001L71.2419 48.0765H102.611Z" fill="#522473"/>
<path d="M121.267 81.2364C117.581 81.2364 114.26 80.5206 111.302 79.0889C108.386 77.6173 106.097 75.6093 104.436 73.064C102.775 70.4791 101.945 67.5558 101.945 64.295C101.945 61.0339 102.775 58.131 104.436 55.5857C106.097 53.0009 108.386 50.9924 111.302 49.5608C114.26 48.1291 117.581 47.4133 121.267 47.4133C124.995 47.4133 128.316 48.1291 131.233 49.5608C134.19 50.9924 136.479 53.0005 138.099 55.5857C139.76 58.1307 140.59 61.0339 140.59 64.295C140.59 67.5561 139.76 70.4791 138.099 73.064C136.479 75.6089 134.19 77.6173 131.233 79.0889C128.316 80.5206 124.995 81.2364 121.267 81.2364ZM121.267 70.7375C122.847 70.7375 124.144 70.1809 125.156 69.0672C126.169 67.914 126.675 66.3232 126.675 64.295C126.675 62.2668 126.169 60.6961 125.156 59.5824C124.144 58.4688 122.847 57.9122 121.267 57.9122C119.688 57.9122 118.391 58.4688 117.379 59.5824C116.366 60.6961 115.86 62.2668 115.86 64.295C115.86 66.3232 116.366 67.914 117.379 69.0672C118.391 70.1809 119.688 70.7375 121.267 70.7375Z" fill="#522473"/>
<path d="M139.258 48.0765H152.909V59.7158H162.253V48.0765H175.904V81.2364H162.253V70.4458H152.909V81.2364H139.258V48.0765Z" fill="#522473"/>
<path d="M207.887 58.7458H197.735V81.2364H184.057V58.7458H173.906V48.0765H207.887V58.7458Z" fill="#522473"/>
<path d="M240.536 64.295C240.536 64.4937 240.475 65.5477 240.353 67.4566H217.147C217.635 68.6895 218.45 69.644 219.589 70.3199C220.729 70.9563 222.154 71.2744 223.864 71.2744C225.33 71.2744 226.551 71.0954 227.528 70.7375C228.546 70.3796 229.646 69.7633 230.826 68.8883L238.032 75.9869C234.775 79.4867 229.91 81.2364 223.437 81.2364C219.406 81.2364 215.864 80.5206 212.811 79.0889C209.757 77.6173 207.396 75.5892 205.727 73.0043C204.058 70.4195 203.223 67.5163 203.223 64.295C203.223 61.0339 204.037 58.131 205.666 55.5857C207.335 53.0009 209.595 50.9924 212.444 49.5608C215.335 48.1291 218.572 47.4133 222.154 47.4133C225.534 47.4133 228.607 48.0694 231.376 49.3818C234.185 50.6942 236.404 52.6228 238.032 55.1681C239.702 57.7131 240.536 60.7557 240.536 64.295ZM222.276 56.5998C220.852 56.5998 219.671 56.9775 218.734 57.7332C217.798 58.4886 217.187 59.5627 216.902 60.9544H227.65C227.366 59.6025 226.755 58.5486 225.818 57.7929C224.882 56.9976 223.702 56.5998 222.276 56.5998Z" fill="#522473"/>
<path d="M261.909 47.4133C264.807 47.4133 267.464 48.114 269.879 49.515C272.334 50.8759 274.267 52.8579 275.675 55.46C277.125 58.062 277.849 61.0645 277.849 64.4674C277.849 67.8704 277.125 70.8729 275.675 73.4749C274.267 76.0368 272.334 78.0188 269.879 79.4199C267.464 80.7811 264.807 81.4616 261.909 81.4616C258.246 81.4616 255.448 80.5207 253.516 78.6392V92.5108H239.87V48.0138H252.852V50.716C254.824 48.5141 257.843 47.4133 261.909 47.4133ZM258.648 70.8928C260.218 70.8928 261.506 70.3324 262.512 69.2114C263.519 68.0904 264.022 66.5091 264.022 64.4674C264.022 62.4258 263.519 60.8445 262.512 59.7235C261.506 58.5626 260.218 57.9821 258.648 57.9821C257.078 57.9821 255.79 58.5626 254.784 59.7235C253.778 60.8445 253.274 62.4258 253.274 64.4674C253.274 66.5091 253.778 68.0904 254.784 69.2114C255.79 70.3324 257.078 70.8928 258.648 70.8928Z" fill="#522473"/>
</svg>
