<svg width="151" height="90" viewBox="0 0 151 90" fill="none" xmlns="http://www.w3.org/2000/svg">
<path d="M48.9375 17.3813C47.125 17.3813 45.5693 16.7766 44.2703 15.5672C42.9713 14.3578 42.3219 12.9094 42.3219 11.2219C42.3219 9.53438 42.9713 8.08594 44.2703 6.87656C45.5693 5.66719 47.125 5.0625 48.9375 5.0625C50.75 5.0625 52.3057 5.66719 53.6047 6.87656C54.9036 8.08594 55.5531 9.53438 55.5531 11.2219C55.5531 12.9094 54.9036 14.3578 53.6047 15.5672C52.3057 16.7766 50.75 17.3813 48.9375 17.3813ZM25.1937 77.625L35.7969 27.9281L26.5531 31.8094V43.0312H21.025V28.4344L38.425 21.6C40.1167 20.925 41.9443 20.7563 43.9078 21.0938C45.8713 21.4312 47.3667 22.3031 48.3937 23.7094L52.2 29.2781C53.7708 31.6406 55.9307 33.6797 58.6797 35.3953C61.4286 37.1109 64.6156 37.9688 68.2406 37.9688V43.0312C64.1927 43.0312 60.5828 42.1734 57.4109 40.4578C54.2391 38.7422 51.2937 36.1687 48.575 32.7375L44.8594 45.9L53.1969 52.9031V77.625H47.7594V57.375L37.9719 49.1063L30.8125 77.625H25.1937Z" fill="#522373"/>
<path d="M81.375 17.3813C79.5833 17.3813 78.0455 16.7766 76.7614 15.5672C75.4774 14.3578 74.8354 12.9094 74.8354 11.2219C74.8354 9.53438 75.4774 8.08594 76.7614 6.87656C78.0455 5.66719 79.5833 5.0625 81.375 5.0625C83.1667 5.0625 84.7045 5.66719 85.9885 6.87656C87.2726 8.08594 87.9146 9.53438 87.9146 11.2219C87.9146 12.9094 87.2726 14.3578 85.9885 15.5672C84.7045 16.7766 83.1667 17.3813 81.375 17.3813ZM57.9042 77.625L68.3854 27.9281L59.2479 31.8094V43.0312H53.7833V28.4344L70.9833 21.6C72.6555 20.925 74.4621 20.7563 76.4031 21.0938C78.3441 21.4312 79.8222 22.3031 80.8375 23.7094L84.6 29.2781C86.1528 31.6406 88.2878 33.6797 91.0052 35.3953C93.7226 37.1109 96.8729 37.9688 100.456 37.9688V43.0312C96.4549 43.0312 92.8865 42.1734 89.751 40.4578C86.6156 38.7422 83.7042 36.1687 81.0167 32.7375L77.3437 45.9L85.5854 52.9031V77.625H80.2104V57.375L70.5354 49.1063L63.4583 77.625H57.9042Z" fill="#522373"/>
<path d="M112.937 17.3813C111.125 17.3813 109.569 16.7766 108.27 15.5672C106.971 14.3578 106.322 12.9094 106.322 11.2219C106.322 9.53438 106.971 8.08594 108.27 6.87656C109.569 5.66719 111.125 5.0625 112.937 5.0625C114.75 5.0625 116.306 5.66719 117.605 6.87656C118.904 8.08594 119.553 9.53438 119.553 11.2219C119.553 12.9094 118.904 14.3578 117.605 15.5672C116.306 16.7766 114.75 17.3813 112.937 17.3813ZM89.1937 77.625L99.7969 27.9281L90.5531 31.8094V43.0312H85.025V28.4344L102.425 21.6C104.117 20.925 105.944 20.7563 107.908 21.0938C109.871 21.4312 111.367 22.3031 112.394 23.7094L116.2 29.2781C117.771 31.6406 119.931 33.6797 122.68 35.3953C125.429 37.1109 128.616 37.9688 132.241 37.9688V43.0312C128.193 43.0312 124.583 42.1734 121.411 40.4578C118.239 38.7422 115.294 36.1687 112.575 32.7375L108.859 45.9L117.197 52.9031V77.625H111.759V57.375L101.972 49.1063L94.8125 77.625H89.1937Z" fill="#522373"/>
</svg>
