<svg width="150" height="90" viewBox="0 0 150 90" fill="none" xmlns="http://www.w3.org/2000/svg">
<path d="M36 80V63.25C36 61.5833 36.3946 60.0417 37.1839 58.625C37.9732 57.2083 39.1107 56.0417 40.5964 55.125C45.3321 51.9583 50.7875 49.4792 56.9625 47.6875C63.1375 45.8958 69.15 45 75 45C80.85 45 86.8625 45.8958 93.0375 47.6875C99.2125 49.4792 104.668 51.9583 109.404 55.125C110.889 56.0417 112.027 57.2083 112.816 58.625C113.605 60.0417 114 61.5833 114 63.25V80H36ZM75 40C68.8714 40 63.625 38.0417 59.2607 34.125C54.8964 30.2083 52.7143 25.5 52.7143 20C52.7143 14.5 54.8964 9.79167 59.2607 5.875C63.625 1.95833 68.8714 0 75 0C81.1286 0 86.375 1.95833 90.7393 5.875C95.1036 9.79167 97.2857 14.5 97.2857 20C97.2857 25.5 95.1036 30.2083 90.7393 34.125C86.375 38.0417 81.1286 40 75 40Z" fill="#522373"/>
</svg>
