<svg width="36" height="36" viewBox="0 0 36 36" fill="none" xmlns="http://www.w3.org/2000/svg">
<path d="M34.3884 26.5076L29.1212 21.1809C29.8822 19.3283 30.278 17.3368 30.278 15.3098C30.278 6.8681 23.4866 0 15.1387 0C6.79133 0 0 6.8681 0 15.3098C0 23.7521 6.79133 30.6202 15.1387 30.6202C17.3606 30.6202 19.5219 30.1352 21.504 29.2027L26.6142 34.3712C27.6531 35.4218 29.0332 36 30.5023 36C31.9714 36 33.3525 35.4213 34.3909 34.3701C35.4283 33.3216 36 31.9254 36 30.4396C35.9995 28.955 35.4278 27.5582 34.3884 26.5076ZM32.2061 32.1637C31.7357 32.6399 31.1188 32.8777 30.5018 32.8777C29.8848 32.8777 29.2684 32.6399 28.797 32.1637L22.0227 25.3117C20.0704 26.6887 17.6987 27.4979 15.1387 27.4979C8.48273 27.4979 3.08743 22.0411 3.08743 15.3098C3.08743 8.57862 8.48273 3.12233 15.1387 3.12233C21.7947 3.12233 27.1905 8.57862 27.1905 15.3098C27.1905 17.688 26.5144 19.9059 25.3494 21.7824L32.2061 28.7166C33.1477 29.6684 33.1477 31.2119 32.2061 32.1637Z" fill="#D4CDE1"/>
<path d="M15.1387 6.59335C10.3867 6.59335 6.52015 10.5036 6.52015 15.3099C6.52015 20.1162 10.3867 24.0264 15.1387 24.0264C19.8913 24.0264 23.7578 20.1162 23.7578 15.3099C23.7578 10.5036 19.8913 6.59335 15.1387 6.59335ZM15.1387 20.9041C12.0889 20.9041 9.60759 18.3947 9.60759 15.3099C9.60759 12.225 12.0889 9.71569 15.1387 9.71569C18.1891 9.71569 20.6704 12.225 20.6704 15.3099C20.6704 18.3947 18.1891 20.9041 15.1387 20.9041Z" fill="#D4CDE1"/>
</svg>
