<svg width="20" height="18" viewBox="0 0 20 18" fill="none" xmlns="http://www.w3.org/2000/svg">
<path d="M7.85 17.25L11.35 14.0416H20V17.25H7.85ZM1.5 15.875H2.6L14.725 4.7604L14.175 4.25623L13.625 3.75206L1.5 14.8666V15.875ZM0 17.25V14.3166L14.7 0.841648C14.9833 0.581926 15.3375 0.455884 15.7625 0.463523C16.1875 0.471162 16.5417 0.604843 16.825 0.864565L17.9 1.84998C18.1833 2.1097 18.325 2.43054 18.325 2.81248C18.325 3.19443 18.1833 3.51526 17.9 3.77498L3.2 17.25H0ZM16.75 2.78956L15.725 1.84998L16.75 2.78956ZM14.725 4.7604L14.175 4.25623L13.625 3.75206L14.725 4.7604Z" fill="#522373"/>
</svg>
