<svg width="51" height="50" viewBox="0 0 51 50" fill="none" xmlns="http://www.w3.org/2000/svg">
<path fill-rule="evenodd" clip-rule="evenodd" d="M50.6274 25C50.6274 38.8071 39.4345 50 25.6274 50C11.8204 50 0.627441 38.8071 0.627441 25C0.627441 11.1929 11.8204 0 25.6274 0C39.4345 0 50.6274 11.1929 50.6274 25ZM17.3686 22.7099C14.8642 23.8033 12.2911 24.9269 9.93812 26.2229C8.70949 27.1225 10.3424 27.7589 11.8744 28.3557C12.118 28.4506 12.3589 28.5445 12.5855 28.6382C12.774 28.6962 12.9657 28.7573 13.1599 28.8192C14.8638 29.362 16.7636 29.9673 18.4178 29.0568C21.135 27.4958 23.6993 25.6912 26.2617 23.888C27.1012 23.2972 27.9405 22.7066 28.7848 22.1247C28.8244 22.0994 28.869 22.0704 28.9179 22.0389C29.6371 21.5725 31.2549 20.5239 30.6565 21.9689C29.2415 23.5164 27.7258 24.8861 26.2019 26.2635C25.1748 27.1918 24.144 28.1234 23.1378 29.1151C22.2614 29.8272 21.3513 31.2592 22.3326 32.2564C24.593 33.8386 26.8886 35.3826 29.1829 36.9257C29.9294 37.4278 30.676 37.9299 31.421 38.4332C32.6837 39.4414 34.6571 38.6258 34.9347 37.0505C35.0582 36.3258 35.1821 35.6012 35.3061 34.8766C35.9911 30.8717 36.6763 26.8653 37.2816 22.8474C37.3639 22.2171 37.4571 21.5869 37.5505 20.9564C37.7766 19.4281 38.0031 17.898 38.0738 16.3616C37.8915 14.8282 36.0323 15.1654 34.9977 15.5102C29.6798 17.5337 24.415 19.7073 19.1711 21.9192C18.577 22.1823 17.9748 22.4452 17.3686 22.7099Z" fill="#522473"/>
</svg>
