<svg width="50" height="50" viewBox="0 0 50 50" fill="none" xmlns="http://www.w3.org/2000/svg">
<path fill-rule="evenodd" clip-rule="evenodd" d="M0 25C0 11.1929 11.1929 0 25 0C38.8071 0 50 11.1929 50 25C50 38.8071 38.8071 50 25 50C11.1929 50 0 38.8071 0 25ZM26.3078 33.2043C26.3078 33.2043 26.789 33.1518 27.0356 32.8919C27.2612 32.6537 27.2534 32.2044 27.2534 32.2044C27.2534 32.2044 27.2234 30.106 28.2159 29.7962C29.1941 29.4915 30.4501 31.8254 31.7831 32.7229C32.79 33.4014 33.5543 33.2529 33.5543 33.2529L37.1162 33.2043C37.1162 33.2043 38.9787 33.0916 38.0957 31.6539C38.0227 31.5361 37.5806 30.5899 35.4481 28.6465C33.2139 26.6122 33.5139 26.9412 36.2033 23.4217C37.8414 21.2786 38.4962 19.9702 38.2914 19.4107C38.097 18.8755 36.8919 19.0176 36.8919 19.0176L32.8826 19.042C32.8826 19.042 32.5852 19.0023 32.3648 19.1316C32.1496 19.2583 32.01 19.5541 32.01 19.5541C32.01 19.5541 31.3762 21.212 30.5297 22.6229C28.7441 25.5982 28.0307 25.7557 27.7386 25.5713C27.059 25.1399 27.2286 23.8404 27.2286 22.9173C27.2286 20.0329 27.6746 18.8307 26.3612 18.5196C25.9256 18.4159 25.6048 18.3481 24.4896 18.3365C23.0588 18.3225 21.8485 18.3417 21.1624 18.6707C20.7059 18.8896 20.3538 19.3787 20.569 19.4068C20.8338 19.4414 21.4337 19.5656 21.752 19.9906C22.1628 20.5399 22.1485 21.7715 22.1485 21.7715C22.1485 21.7715 22.3845 25.1667 21.5968 25.588C21.0568 25.8773 20.316 25.2871 18.7235 22.587C17.9083 21.2043 17.2927 19.6757 17.2927 19.6757C17.2927 19.6757 17.174 19.3902 16.9614 19.2366C16.7045 19.0509 16.3458 18.9933 16.3458 18.9933L12.536 19.0176C12.536 19.0176 11.9634 19.033 11.7534 19.2775C11.5669 19.4939 11.7391 19.9433 11.7391 19.9433C11.7391 19.9433 14.722 26.794 18.1 30.2468C21.1977 33.4117 24.714 33.2043 24.714 33.2043H26.3078Z" fill="#522473"/>
</svg>
